<svg width="25" height="27" xmlns="http://www.w3.org/2000/svg">
  <path fill="#E8E8E8" d="m18.0589,17.6251c1.6116,-1.7601 2.5686,-4.0212 2.7101,-6.4035c0.1416,-2.38228 -0.5409,-4.74072 -1.9328,-6.67928c-1.3919,-1.93855 -3.4084,-3.33914 -5.711,-3.96655c-2.3025,-0.62743 -4.75083,-0.44346 -6.93377,0.52098c-2.18293,0.96445 -3.96754,2.65064 -5.05413,4.77542c-1.08659,2.12478 -1.40898,4.55873 -0.91304,6.89313c0.49595,2.3344 1.78002,4.427 3.63659,5.9266c1.85656,1.4995 4.17255,2.3145 6.55905,2.3082c2.2524,0.003 4.4439,-0.731 6.24,-2.09l7.748,7.807c0.0855,0.089 0.1879,0.1601 0.3012,0.209c0.1134,0.049 0.2353,0.0748 0.3588,0.076c0.1237,0.0003 0.2461,-0.0248 0.3597,-0.0738c0.1135,-0.049 0.2158,-0.1209 0.3003,-0.2112c0.1739,-0.1809 0.2711,-0.4221 0.2711,-0.673c0,-0.251 -0.0972,-0.4922 -0.2711,-0.6731l-7.669,-7.7459zm-16.17301,-7.125c0.01284,-1.68533 0.52432,-3.32909 1.46997,-4.7241c0.94565,-1.39502 2.28313,-2.47885 3.84384,-3.11486c1.56072,-0.63601 3.2748,-0.79572 4.9261,-0.45901c1.6514,0.33671 3.1661,1.15477 4.3532,2.35106c1.1871,1.19629 1.9935,2.71725 2.3175,4.37114c0.3239,1.65387 0.151,3.36667 -0.497,4.92247c-0.648,1.5558 -1.7421,2.8848 -3.1444,3.8197c-1.4022,0.9349 -3.0499,1.4337 -4.7352,1.4335c-2.27147,-0.0108 -4.44581,-0.9225 -6.0458,-2.5348c-1.59998,-1.6124 -2.49486,-3.7937 -2.48821,-6.0651z" id="Forma 1"/>
</svg>